<svg width="123" height="123" viewBox="0 0 123 123" fill="none" xmlns="http://www.w3.org/2000/svg">
<path d="M49.9688 3.84375C42.8353 3.85183 35.9963 6.68918 30.9521 11.7333C25.908 16.7775 23.0706 23.6165 23.0625 30.75V49.8921C23.0649 53.1075 23.8716 56.2711 25.4091 59.095L32.0048 71.1867L14.5102 82.558C11.8215 84.2985 9.61224 86.6856 8.08457 89.5007C6.55691 92.3158 5.75962 95.469 5.76566 98.6719V119.156H74.9532V111.469H13.4532V98.6719C13.4496 96.7502 13.928 94.8582 14.8446 93.1691C15.7613 91.48 17.0869 90.0478 18.7001 89.0035L42.1614 73.7536L32.158 55.4139C31.2355 53.7195 30.7515 51.8213 30.75 49.8921V30.75C30.75 25.6529 32.7749 20.7645 36.3791 17.1603C39.9833 13.5561 44.8717 11.5312 49.9688 11.5312C55.0659 11.5312 59.9543 13.5561 63.5585 17.1603C67.1627 20.7645 69.1875 25.6529 69.1875 30.75V49.8921C69.1861 51.8213 68.702 53.7195 67.7795 55.4139L57.7764 73.7536L74.9532 84.9188V75.75L67.9328 71.1855L74.5284 59.0936C76.0658 56.2701 76.8725 53.107 76.875 49.8921V30.75C76.867 23.6165 74.0296 16.7775 68.9855 11.7333C63.9413 6.68918 57.1023 3.85183 49.9688 3.84375Z" fill="#AAB4BD"/>
<path d="M90.2139 95.8236V80.4486H82.5264V95.8236H67.1514V103.511H82.5264V118.886H90.2139V103.511H105.589V95.8236H90.2139Z" fill="#1D9BF0"/>
</svg>
