<svg width="16" height="16" viewBox="0 0 16 16" fill="none" xmlns="http://www.w3.org/2000/svg">
<path fill-rule="evenodd" clip-rule="evenodd" d="M9.88525 8L15.609 2.27624C16.1303 1.75493 16.1303 0.912295 15.609 0.390984C15.0877 -0.130328 14.2451 -0.130328 13.7238 0.390984L8 6.11475L2.27624 0.390984C1.75493 -0.130328 0.912295 -0.130328 0.390984 0.390984C-0.130328 0.912295 -0.130328 1.75493 0.390984 2.27624L6.11475 8L0.390984 13.7238C-0.130328 14.2451 -0.130328 15.0877 0.390984 15.609C0.650973 15.869 0.992292 15.9997 1.33361 15.9997C1.67493 15.9997 2.01625 15.869 2.27624 15.609L8 9.88525L13.7238 15.609C13.9838 15.869 14.3251 15.9997 14.6664 15.9997C15.0077 15.9997 15.349 15.869 15.609 15.609C16.1303 15.0877 16.1303 14.2451 15.609 13.7238L9.88525 8Z" fill="#384047"/>
</svg>
