<svg width="222" height="220" viewBox="0 0 222 220" fill="none" xmlns="http://www.w3.org/2000/svg">
<rect width="222" height="220" rx="6" fill="#E7ECEC"/>
<path d="M166.35 142.871L139.041 125.121L149.337 106.246C151.737 101.838 152.996 96.8993 153 91.8804V62C153 50.8609 148.575 40.178 140.698 32.3015C132.822 24.425 122.139 20 111 20C99.8609 20 89.1781 24.425 81.3015 32.3015C73.425 40.178 69 50.8609 69 62V91.8804C69.0038 96.8994 70.263 101.838 72.663 106.246L82.9586 125.121L55.65 142.871C51.4531 145.588 48.0045 149.314 45.6198 153.708C43.2352 158.103 41.9906 163.025 42.0001 168.024V200H180V168.024C180.009 163.025 178.765 158.103 176.38 153.708C173.995 149.314 170.547 145.588 166.35 142.871V142.871ZM168 188H54V168.024C53.9944 165.025 54.7412 162.071 56.1721 159.435C57.6029 156.798 59.6722 154.562 62.1904 152.932L98.8129 129.128L83.1979 100.5C81.7579 97.8549 81.0023 94.8918 81 91.8804V62C81 54.0435 84.1607 46.4129 89.7868 40.7868C95.4129 35.1607 103.044 32 111 32C118.956 32 126.587 35.1607 132.213 40.7868C137.839 46.4129 141 54.0435 141 62V91.8804C140.998 94.8918 140.242 97.8549 138.802 100.5L123.187 129.128L159.811 152.932C162.329 154.563 164.398 156.798 165.828 159.435C167.259 162.071 168.006 165.025 168 168.024V188Z" fill="#F9F9F9"/>
<g filter="url(#filter0_b_1184:3302)">
<circle cx="111.5" cy="109.5" r="34.5" fill="#001429" fill-opacity="0.45"/>
</g>
<g clip-path="url(#clip0_1184:3302)">
<path d="M98 97.5V93H101V97.5H105.5V100.5H101V105H98V100.5H93.5V97.5H98ZM102.5 106.5V102H107V97.5H117.5L120.245 100.5H125C126.65 100.5 128 101.85 128 103.5V121.5C128 123.15 126.65 124.5 125 124.5H101C99.35 124.5 98 123.15 98 121.5V106.5H102.5ZM113 120C117.14 120 120.5 116.64 120.5 112.5C120.5 108.36 117.14 105 113 105C108.86 105 105.5 108.36 105.5 112.5C105.5 116.64 108.86 120 113 120ZM108.2 112.5C108.2 115.155 110.345 117.3 113 117.3C115.655 117.3 117.8 115.155 117.8 112.5C117.8 109.845 115.655 107.7 113 107.7C110.345 107.7 108.2 109.845 108.2 112.5Z" fill="#F9F9F9"/>
</g>
<defs>
<filter id="filter0_b_1184:3302" x="73" y="71" width="77" height="77" filterUnits="userSpaceOnUse" color-interpolation-filters="sRGB">
<feFlood flood-opacity="0" result="BackgroundImageFix"/>
<feGaussianBlur in="BackgroundImage" stdDeviation="2"/>
<feComposite in2="SourceAlpha" operator="in" result="effect1_backgroundBlur_1184:3302"/>
<feBlend mode="normal" in="SourceGraphic" in2="effect1_backgroundBlur_1184:3302" result="shape"/>
</filter>
<clipPath id="clip0_1184:3302">
<rect width="36" height="36" fill="white" transform="translate(93.5 91.5)"/>
</clipPath>
</defs>
</svg>
