<svg width="153" height="29" viewBox="0 0 153 29" fill="none" xmlns="http://www.w3.org/2000/svg">
<path d="M93.8545 28.4727H110.288V24.8697H99.3909C100.885 18.894 110.024 17.5758 110.024 10.897C110.024 7.29396 107.564 4.65759 102.467 4.65759C99.2151 4.65759 96.4909 5.62426 94.5575 6.59093L95.6999 9.93032C97.4575 9.13941 99.3909 8.3485 101.764 8.3485C103.697 8.3485 105.454 9.13941 105.454 11.3364C105.542 16.2576 94.8212 16.6091 93.8545 28.4727Z" fill="#00629A"/>
<path d="M143.155 23.4636C138.145 23.4636 134.015 19.3333 134.015 14.3242C134.015 9.31512 138.145 5.18481 143.155 5.18481C148.164 5.18481 152.294 9.31512 152.294 14.3242C152.294 19.3333 148.164 23.4636 143.155 23.4636ZM143.155 6.85451C139.024 6.85451 135.685 10.1939 135.685 14.3242C135.685 18.4545 139.024 21.7939 143.155 21.7939C147.285 21.7939 150.624 18.4545 150.624 14.3242C150.624 10.1939 147.285 6.85451 143.155 6.85451Z" fill="#00629A"/>
<path d="M148.339 14.3242H143.77V9.75452H142.539V15.5545H148.339V14.3242Z" fill="#00629A"/>
<path d="M0 1.40613H7.90909C13.7091 1.40613 16.3455 4.74552 16.3455 8.26067C16.3455 10.6334 15.203 12.7425 13.0939 13.8849V13.9728C16.2576 14.7637 18.1909 17.3122 18.1909 20.4758C18.1909 24.694 15.0273 28.4728 8.7 28.4728H0V1.40613ZM7.29394 12.7425C10.0182 12.7425 11.5121 11.2486 11.5121 9.13946C11.5121 7.11825 10.1939 5.53643 7.29394 5.53643H5.00909V12.7425H7.29394ZM8.08485 24.4304C11.3364 24.4304 13.1818 23.2001 13.1818 20.4758C13.1818 18.191 11.4242 16.7849 8.7 16.7849H5.00909V24.4304H8.08485Z" fill="#3FC0F0"/>
<path d="M21.8818 2.98788C21.8818 1.31818 23.2 0 24.8697 0C26.5394 0 27.9455 1.2303 27.9455 2.98788C27.9455 4.5697 26.6273 5.88788 24.8697 5.88788C23.1121 5.88788 21.8818 4.65758 21.8818 2.98788ZM22.4091 9.05152H27.3303V28.4727H22.4091V9.05152Z" fill="#3FC0F0"/>
<path d="M33.9212 23.7273V12.9182H30.406V9.05157H33.9212V4.56976L38.8424 3.1637V9.05157H44.7302L43.4999 12.9182H38.8424V22.497C38.8424 24.3425 39.4575 24.9576 40.7757 24.9576C41.9181 24.9576 42.9727 24.5182 43.7636 23.991L45.2575 27.3304C43.8515 28.297 41.4787 28.8243 39.5454 28.8243C36.0302 28.9122 33.9212 26.9788 33.9212 23.7273Z" fill="#3FC0F0"/>
<path d="M47.8939 9.05145H52.0242L52.5515 11.2484C54.3091 9.49085 55.8909 8.61206 57.9121 8.61206C58.7909 8.61206 59.8454 8.8757 60.6363 9.40297L58.8788 13.5333C58 13.006 57.2091 12.9181 56.6818 12.9181C55.3636 12.9181 54.3091 13.4454 52.7272 14.8515V28.5605H47.806V9.05145H47.8939Z" fill="#3FC0F0"/>
<path d="M62.5697 2.98788C62.5697 1.31818 63.8879 0 65.5576 0C67.2273 0 68.5455 1.31818 68.5455 2.98788C68.5455 4.5697 67.2273 5.88788 65.4697 5.88788C63.7121 5.88788 62.5697 4.65758 62.5697 2.98788ZM63.097 9.05152H68.0182V28.4727H63.097V9.05152Z" fill="#3FC0F0"/>
<path d="M77.9485 18.7182L70.9182 9.05151H76.0152L80.5849 15.3788L85.2424 9.05151H90.3394L83.2212 18.7182L90.4273 28.4727H85.3303L80.6727 21.9697L75.9273 28.4727H70.8303L77.9485 18.7182Z" fill="#3FC0F0"/>
<path d="M125.579 19.2455V4.65759H122.503L110.815 19.8606V22.7606H121.361V28.5606H125.579V22.7606H129.094V19.2455H125.579ZM121.361 15.8182V19.1576H118.549C117.67 19.1576 116.088 19.2455 115.561 19.2455L121.536 11.1606C121.536 11.8637 121.361 13.9727 121.361 15.8182Z" fill="#00629A"/>
</svg>
