<svg width="15" height="15" viewBox="0 0 15 15" fill="none" xmlns="http://www.w3.org/2000/svg">
<path d="M6.91053 0.0232056C8.42473 -0.0961731 9.93949 0.24701 11.2544 1.00735C12.5693 1.76768 13.6223 2.90933 14.2742 4.28124C14.926 5.65314 15.146 7.19064 14.9049 8.69028C14.6639 10.1899 13.9732 11.581 12.9242 12.6796C11.8753 13.7781 10.5175 14.5322 9.03055 14.8422C7.54362 15.1521 5.99762 15.0033 4.59711 14.4154C3.19659 13.8275 2.00759 12.8283 1.18742 11.5498C0.367242 10.2714 -0.045441 8.77411 0.00397113 7.25601C0.0067412 7.16368 0.0276708 7.07279 0.0655654 6.98855C0.10346 6.9043 0.157577 6.82834 0.224827 6.76501C0.292077 6.70168 0.371143 6.65221 0.45751 6.61943C0.543877 6.58666 0.635854 6.57121 0.728189 6.57398C0.820525 6.57675 0.911411 6.59768 0.995658 6.63558C1.0799 6.67347 1.15586 6.72759 1.2192 6.79484C1.28253 6.86209 1.33199 6.94116 1.36477 7.02752C1.39755 7.11389 1.41299 7.20587 1.41022 7.2982C1.36271 8.73525 1.82488 10.1428 2.715 11.272C3.60512 12.4012 4.86585 13.1793 6.27427 13.4686C7.68269 13.758 9.14806 13.54 10.4113 12.8532C11.6745 12.1665 12.6542 11.0551 13.1771 9.71576C13.7 8.37638 13.7325 6.89524 13.2688 5.53423C12.805 4.17322 11.875 3.02003 10.6431 2.27856C9.41118 1.53709 7.95677 1.25511 6.53702 1.48248C5.11727 1.70985 3.82365 2.43192 2.88491 3.52102L2.69366 3.75352H4.92397L5.01959 3.76102C5.18789 3.78417 5.3421 3.86747 5.45374 3.99552C5.56538 4.12357 5.62688 4.2877 5.62688 4.45758C5.62688 4.62746 5.56538 4.79159 5.45374 4.91964C5.3421 5.04768 5.18789 5.13099 5.01959 5.15414L4.92397 5.1607H1.17397L1.07835 5.15414C0.926329 5.13327 0.785313 5.06324 0.676812 4.95474C0.568312 4.84624 0.498282 4.70522 0.477408 4.5532L0.470846 4.45758V0.70758L0.477408 0.611955C0.498282 0.459938 0.568312 0.318923 0.676812 0.210422C0.785313 0.101921 0.926329 0.0318921 1.07835 0.0110181L1.17397 0.00445565L1.2696 0.0110181C1.42161 0.0318921 1.56263 0.101921 1.67113 0.210422C1.77963 0.318923 1.84966 0.459938 1.87053 0.611955L1.8771 0.70758L1.87616 2.53852C3.16292 1.0769 4.96905 0.174847 6.91053 0.0241431V0.0232056ZM7.2649 3.75352L7.36053 3.76008C7.51255 3.78095 7.65356 3.85098 7.76206 3.95948C7.87056 4.06798 7.94059 4.209 7.96147 4.36102L7.96803 4.45664V7.49883L9.60865 7.49976L9.70428 7.50633C9.87328 7.52872 10.0284 7.61176 10.1407 7.73998C10.2531 7.8682 10.315 8.03288 10.315 8.20336C10.315 8.37384 10.2531 8.53851 10.1407 8.66674C10.0284 8.79496 9.87328 8.87799 9.70428 8.90039L9.60865 8.90601H7.2649L7.16928 8.90039C7.01713 8.87947 6.87601 8.8093 6.76749 8.70062C6.65897 8.59193 6.58903 8.4507 6.56834 8.29852L6.56178 8.20289V4.45664L6.56834 4.36102C6.58922 4.209 6.65925 4.06798 6.76775 3.95948C6.87625 3.85098 7.01726 3.78095 7.16928 3.76008L7.2649 3.75352Z" fill="#F8F8F8"/>
</svg>
