<svg width="15" height="17" viewBox="0 0 15 17" fill="none" xmlns="http://www.w3.org/2000/svg">
<path d="M7.50009 0.290443C8.17319 0.290399 8.82078 0.547923 9.31003 1.01019C9.79928 1.47245 10.0931 2.10441 10.1312 2.77642L10.1353 2.92561H14.3921C14.5461 2.92566 14.6945 2.98419 14.807 3.08937C14.9196 3.19456 14.9881 3.33856 14.9986 3.49228C15.0091 3.64599 14.9608 3.79797 14.8636 3.91749C14.7664 4.03701 14.6274 4.11516 14.4748 4.13617L14.3921 4.14184H13.7467L12.7088 14.6987C12.6568 15.225 12.4194 15.7157 12.0391 16.0832C11.6587 16.4506 11.1601 16.6709 10.6323 16.7047L10.4896 16.7096H4.5106C3.9815 16.7095 3.46966 16.5214 3.06653 16.1787C2.6634 15.836 2.39526 15.3612 2.31003 14.839L2.29138 14.6979L1.25272 4.14184H0.608116C0.461164 4.14184 0.319186 4.08862 0.208437 3.99203C0.0976883 3.89544 0.0256611 3.76202 0.00567572 3.61643L0 3.53373C6.19702e-06 3.38678 0.0532244 3.2448 0.149813 3.13405C0.246401 3.0233 0.379826 2.95127 0.525412 2.93129L0.608116 2.92561H4.86492C4.86492 2.22672 5.14256 1.55646 5.63675 1.06227C6.13094 0.568076 6.8012 0.290443 7.50009 0.290443ZM12.5247 4.14184H2.47463L3.50194 14.5787C3.52468 14.8116 3.62731 15.0294 3.79239 15.1953C3.95747 15.3611 4.17485 15.4647 4.40762 15.4885L4.5106 15.4933H10.4896C10.9761 15.4933 11.3888 15.1487 11.4828 14.6809L11.4991 14.5787L12.5239 4.14184H12.5247ZM8.91903 6.3716C9.06598 6.3716 9.20796 6.42482 9.31871 6.52141C9.42946 6.618 9.50148 6.75142 9.52147 6.89701L9.52714 6.97971V12.6555C9.5271 12.8095 9.46857 12.9578 9.36338 13.0704C9.25819 13.183 9.11419 13.2515 8.96048 13.262C8.80676 13.2725 8.65479 13.2242 8.53527 13.127C8.41575 13.0298 8.33759 12.8908 8.31659 12.7382L8.31091 12.6555V6.97971C8.31091 6.81843 8.37498 6.66376 8.48903 6.54971C8.60307 6.43567 8.75775 6.3716 8.91903 6.3716ZM6.08116 6.3716C6.22811 6.3716 6.37009 6.42482 6.48083 6.52141C6.59158 6.618 6.66361 6.75142 6.6836 6.89701L6.68927 6.97971V12.6555C6.68922 12.8095 6.63069 12.9578 6.52551 13.0704C6.42032 13.183 6.27632 13.2515 6.12261 13.262C5.96889 13.2725 5.81692 13.2242 5.6974 13.127C5.57787 13.0298 5.49972 12.8908 5.47872 12.7382L5.47304 12.6555V6.97971C5.47304 6.81843 5.53711 6.66376 5.65115 6.54971C5.7652 6.43567 5.91987 6.3716 6.08116 6.3716ZM7.50009 1.50667C7.14399 1.50669 6.80091 1.6406 6.53895 1.88182C6.277 2.12305 6.11532 2.45396 6.08602 2.80885L6.08116 2.92561H8.91903C8.91903 2.54929 8.76954 2.18837 8.50343 1.92227C8.23733 1.65617 7.87642 1.50667 7.50009 1.50667Z" fill="#F9F9F9"/>
</svg>
