<svg width="35" height="35" viewBox="0 0 35 35" fill="none" xmlns="http://www.w3.org/2000/svg">
<path d="M21.4167 16.7891L9.30997 14.6562V30.4161C9.31011 30.5873 9.34397 30.7568 9.40963 30.9149C9.47528 31.0731 9.57143 31.2167 9.6926 31.3377C9.81377 31.4586 9.95757 31.5545 10.1158 31.6199C10.274 31.6853 10.4436 31.7189 10.6148 31.7188H31.5054C31.6768 31.7192 31.8466 31.6858 32.0051 31.6206C32.1636 31.5553 32.3077 31.4594 32.4291 31.3384C32.5505 31.2174 32.6468 31.0737 32.7126 30.9154C32.7784 30.7572 32.8123 30.5875 32.8125 30.4161V24.6094L21.4167 16.7891Z" fill="#185C37"/>
<path d="M21.4167 3.28125H10.6148C10.4436 3.28111 10.274 3.31469 10.1158 3.38007C9.95757 3.44546 9.81377 3.54137 9.6926 3.66234C9.57143 3.7833 9.47528 3.92694 9.40963 4.08507C9.34397 4.24319 9.31011 4.4127 9.30997 4.58391V10.3906L21.4167 17.5L27.8272 19.6328L32.8125 17.5V10.3906L21.4167 3.28125Z" fill="#21A366"/>
<path d="M9.30997 10.3906H21.4167V17.5H9.30997V10.3906Z" fill="#107C41"/>
<path opacity="0.1" d="M17.9747 8.96875H9.30997V26.7422H17.9747C18.3199 26.7405 18.6506 26.6028 18.895 26.359C19.1395 26.1151 19.278 25.7848 19.2806 25.4395V10.2714C19.278 9.92615 19.1395 9.59582 18.895 9.35199C18.6506 9.10816 18.3199 8.97047 17.9747 8.96875Z" fill="black"/>
<path opacity="0.2" d="M17.2626 9.67969H9.30997V27.4531H17.2626C17.6079 27.4514 17.9386 27.3137 18.183 27.0699C18.4275 26.8261 18.566 26.4957 18.5686 26.1505V10.9823C18.566 10.6371 18.4275 10.3068 18.183 10.0629C17.9386 9.8191 17.6079 9.6814 17.2626 9.67969Z" fill="black"/>
<path opacity="0.2" d="M17.2626 9.67969H9.30997V26.0312H17.2626C17.6079 26.0295 17.9386 25.8918 18.183 25.648C18.4275 25.4042 18.566 25.0738 18.5686 24.7286V10.9823C18.566 10.6371 18.4275 10.3068 18.183 10.0629C17.9386 9.8191 17.6079 9.6814 17.2626 9.67969Z" fill="black"/>
<path opacity="0.2" d="M16.5506 9.67969H9.30997V26.0312H16.5506C16.8959 26.0295 17.2265 25.8918 17.471 25.648C17.7154 25.4042 17.8539 25.0738 17.8565 24.7286V10.9823C17.8539 10.6371 17.7154 10.3068 17.471 10.0629C17.2265 9.8191 16.8959 9.6814 16.5506 9.67969Z" fill="black"/>
<path d="M3.49344 9.67969H16.5506C16.8965 9.6794 17.2283 9.81644 17.4732 10.0607C17.7181 10.305 17.856 10.6365 17.8566 10.9823V24.0177C17.856 24.3635 17.7181 24.695 17.4732 24.9393C17.2283 25.1836 16.8965 25.3206 16.5506 25.3203H3.49344C3.32213 25.3206 3.15245 25.2871 2.99409 25.2218C2.83574 25.1565 2.6918 25.0606 2.57052 24.9396C2.44924 24.8186 2.35299 24.6749 2.28726 24.5167C2.22154 24.3586 2.18764 24.189 2.1875 24.0177V10.9823C2.18764 10.811 2.22154 10.6414 2.28726 10.4833C2.35299 10.3251 2.44924 10.1814 2.57052 10.0604C2.6918 9.93941 2.83574 9.84352 2.99409 9.7782C3.15245 9.71288 3.32213 9.6794 3.49344 9.67969Z" fill="url(#paint0_linear_1715_670)"/>
<path d="M6.23434 21.7361L8.98075 17.488L6.46513 13.2639H8.48528L9.85794 15.9688C9.98481 16.2247 10.0767 16.415 10.1183 16.5419H10.1368C10.2265 16.3363 10.3217 16.1383 10.4212 15.9447L11.889 13.2683H13.7484L11.1683 17.4683L13.814 21.7394H11.8354L10.2495 18.7742C10.1759 18.6467 10.1133 18.5132 10.0625 18.375H10.0362C9.98997 18.5096 9.92831 18.6385 9.85247 18.7589L8.2195 21.7361H6.23434Z" fill="white"/>
<path d="M31.5066 3.28125H21.4167V10.3906H32.8125V4.58391C32.8124 4.41261 32.7785 4.24301 32.7128 4.08481C32.647 3.92662 32.5508 3.78293 32.4295 3.66195C32.3082 3.54097 32.1643 3.44508 32.0059 3.37976C31.8476 3.31444 31.6779 3.28096 31.5066 3.28125Z" fill="#33C481"/>
<path d="M21.4167 17.5H32.8125V24.6094H21.4167V17.5Z" fill="#107C41"/>
<defs>
<linearGradient id="paint0_linear_1715_670" x1="4.91531" y1="8.65594" x2="15.1287" y2="26.3441" gradientUnits="userSpaceOnUse">
<stop stop-color="#18884F"/>
<stop offset="0.5" stop-color="#117E43"/>
<stop offset="1" stop-color="#0B6631"/>
</linearGradient>
</defs>
</svg>
