<svg width="40" height="40" viewBox="0 0 40 40" fill="none" xmlns="http://www.w3.org/2000/svg">
<path d="M0 13.4167C0 8.67091 0 6.29803 0.938221 4.49188C1.72885 2.96985 2.96985 1.72885 4.49188 0.938221C6.29803 0 8.67091 0 13.4167 0H26.5833C31.3291 0 33.702 0 35.5081 0.938221C37.0301 1.72885 38.2711 2.96985 39.0618 4.49188C40 6.29803 40 8.67091 40 13.4167V26.5833C40 31.3291 40 33.702 39.0618 35.5081C38.2711 37.0301 37.0301 38.2711 35.5081 39.0618C33.702 40 31.3291 40 26.5833 40H13.4167C8.67091 40 6.29803 40 4.49188 39.0618C2.96985 38.2711 1.72885 37.0301 0.938221 35.5081C0 33.702 0 31.3291 0 26.5833V13.4167Z" fill="url(#paint0_linear_1148:3846)"/>
<path d="M15.4167 30.625C14.6068 30.625 14.7444 30.3192 14.4651 29.5481L12.0834 21.7096L30.4167 10.8334" fill="#C8DAEA"/>
<path d="M15.4166 30.625C16.0416 30.625 16.3178 30.3392 16.6666 30L20 26.7588L15.842 24.2515" fill="#A9C9DD"/>
<path d="M15.8417 24.2521L25.9167 31.6956C27.0663 32.33 27.8961 32.0015 28.1825 30.6282L32.2835 11.3026C32.7034 9.61923 31.6418 8.85573 30.542 9.35507L6.46075 18.6407C4.81698 19.3 4.82656 20.2171 6.16112 20.6257L12.3409 22.5545L26.6478 13.5285C27.3232 13.1189 27.9431 13.3391 27.4343 13.7906" fill="url(#paint1_linear_1148:3846)"/>
<defs>
<linearGradient id="paint0_linear_1148:3846" x1="26.668" y1="6.668" x2="16.668" y2="30" gradientUnits="userSpaceOnUse">
<stop stop-color="#37AEE2"/>
<stop offset="1" stop-color="#1E96C8"/>
</linearGradient>
<linearGradient id="paint1_linear_1148:3846" x1="23.126" y1="19.1664" x2="27.0383" y2="28.0691" gradientUnits="userSpaceOnUse">
<stop stop-color="#EFF7FC"/>
<stop offset="1" stop-color="white"/>
</linearGradient>
</defs>
</svg>
