<svg width="40" height="40" viewBox="0 0 40 40" fill="none" xmlns="http://www.w3.org/2000/svg">
<path d="M35 0H5C2.23858 0 0 2.23858 0 5V35C0 37.7614 2.23858 40 5 40H35C37.7614 40 40 37.7614 40 35V5C40 2.23858 37.7614 0 35 0Z" fill="#7B519D"/>
<path fill-rule="evenodd" clip-rule="evenodd" d="M32.9621 26.9888C32.0091 26.2216 30.9908 25.533 29.9883 24.8296C27.9891 23.4254 26.1605 23.3163 24.6687 25.5754C23.831 26.8436 22.6583 26.8992 21.432 26.3428C18.0515 24.81 15.4411 22.4483 13.9121 19.0123C13.2357 17.4922 13.2446 16.1293 14.8272 15.0541C15.665 14.4855 16.5092 13.8127 16.4417 12.5703C16.3536 10.9503 12.4202 5.53647 10.8669 4.96506C10.2242 4.72858 9.58411 4.74397 8.9302 4.96373C5.28802 6.18858 3.77942 9.18397 5.22419 12.7307C9.53434 23.3121 17.1195 30.6785 27.5609 35.1746C28.1562 35.4306 28.8176 35.5329 29.1524 35.6248C31.5296 35.6487 34.3143 33.3584 35.1186 31.0854C35.8929 28.8987 34.2565 28.0308 32.9621 26.9888ZM21.2547 6.0499C28.888 7.22373 32.4084 10.8534 33.3804 18.5417C33.4706 19.2519 33.2061 20.3204 34.2193 20.3401C35.2782 20.3604 35.023 19.3076 35.0319 18.5967C35.1215 11.3558 28.8078 4.64311 21.4754 4.39561C20.9222 4.47522 19.7775 4.01412 19.7061 5.25404C19.6585 6.08998 20.6222 5.95264 21.2547 6.0499Z" fill="white"/>
<path fill-rule="evenodd" clip-rule="evenodd" d="M22.7477 8.1579C22.0135 8.06946 21.0442 7.72352 20.8727 8.74227C20.6935 9.81157 21.7738 9.70297 22.468 9.85837C27.1825 10.912 28.8241 12.628 29.6003 17.3045C29.7137 17.9863 29.4884 19.0475 30.6471 18.8716C31.5058 18.7409 31.1956 17.8313 31.2674 17.2999C31.3055 12.8101 27.4582 8.72352 22.7477 8.1579Z" fill="white"/>
<path fill-rule="evenodd" clip-rule="evenodd" d="M23.1806 11.8294C22.6905 11.8415 22.2095 11.8946 22.0294 12.4183C21.7588 13.2011 22.328 13.3878 22.9073 13.4808C24.8412 13.7913 25.8591 14.9317 26.0523 16.8603C26.1044 17.3837 26.4366 17.8078 26.9423 17.7482C27.643 17.6646 27.7063 17.0409 27.6848 16.4486C27.7194 14.2819 25.2705 11.7775 23.1806 11.8294Z" fill="white"/>
</svg>
