<svg width="150" height="29" viewBox="0 0 150 29" fill="none" xmlns="http://www.w3.org/2000/svg">
<g clip-path="url(#clip0_1159:2382)">
<path fill-rule="evenodd" clip-rule="evenodd" d="M6.7201 25.4681C6.64859 25.4679 6.57797 25.4522 6.5131 25.4221C6.2631 25.3071 6.1061 25.2561 6.2211 25.0061L9.4611 17.8311C9.51381 17.7156 9.60912 17.6249 9.7271 17.5781L11.1971 16.9831C11.3625 16.9161 11.5511 16.9424 11.6918 17.0522C11.8325 17.1619 11.904 17.3384 11.8793 17.5152C11.8546 17.6919 11.7375 17.8421 11.5721 17.9091L10.2861 18.4291L7.1311 25.4261C7.0451 25.6081 6.9111 25.4691 6.7211 25.4691L6.7201 25.4681Z" fill="#2A2A2A"/>
<path fill-rule="evenodd" clip-rule="evenodd" d="M11.484 17.938L11.204 17.241L44.994 3.59497L8.36002 14.342L8.15002 13.622L47.546 2.71997L11.484 17.937V17.938Z" fill="#2A2A2A"/>
<path fill-rule="evenodd" clip-rule="evenodd" d="M32.7001 19.2C32.4907 19.2 32.3035 19.0696 32.231 18.8732C32.1585 18.6768 32.2159 18.4561 32.3751 18.32L52.5401 1H10.5551L2.16005 8.552L8.91005 13.472C8.94759 13.4997 8.98122 13.5323 9.01005 13.569L11.7781 17.139C11.9481 17.357 11.9081 17.671 11.6901 17.839C11.4719 18.0078 11.1584 17.9689 10.9881 17.752L8.26305 14.24L1.07305 9C0.951418 8.9108 0.87634 8.77164 0.868585 8.621C0.86083 8.47036 0.921221 8.32422 1.03305 8.223L10.0301 0.127003C10.1211 0.0448581 10.2394 -0.000420946 10.3621 2.94962e-06H53.9001C54.1101 2.94962e-06 54.2851 0.130003 54.3581 0.325003C54.4307 0.521103 54.3737 0.741715 54.2151 0.878003L33.0251 19.078C32.9347 19.1558 32.8193 19.1984 32.7001 19.198V19.2Z" fill="#2A2A2A"/>
<path fill-rule="evenodd" clip-rule="evenodd" d="M6.22003 25.006L4.28503 29H21.435L26 25" fill="#44AC5A"/>
<path fill-rule="evenodd" clip-rule="evenodd" d="M40.88 25V11.997L33.406 18.567L29.493 11.797H26V25H28.907V16.5201L32.081 22.348H34.881L37.975 16.5751V25H40.882H40.88ZM149.128 24.975V11.8H146.141V16.893H139.663V11.8H136.649V24.973H139.663V19.6131H146.143V24.973H149.129V24.975H149.128ZM104.484 19.08C104.379 21.08 104.271 21.6401 103.978 22.0401C103.658 22.3871 103.286 22.6 102.726 22.6C102.513 22.6 102.084 22.5751 102.084 22.5751V25.108C102.404 25.134 102.99 25.188 103.364 25.188C104.458 25.188 105.417 25.0281 106.031 24.4681C106.644 23.908 107.285 23.188 107.443 20.494C107.499 19.507 107.683 14.5201 107.683 14.5201H112.883V25H115.898V11.8H104.67C104.646 12.732 104.593 17.16 104.484 19.08ZM82.378 21.453V11.88C81.898 11.8 80.004 11.532 77.204 11.532C71.924 11.532 69.15 14.4921 69.15 18.9191C69.15 21.0791 69.71 22.625 70.67 23.689C71.763 24.891 73.443 25.371 74.75 25.371C78.19 25.371 79.417 23.265 79.417 23.265L79.523 23.3181C79.523 23.3181 79.496 23.4531 79.496 23.6651C79.496 25.0251 80.883 25.345 82.083 25.345C83.391 25.345 84.109 25.24 84.109 25.24V22.68C83.949 22.706 83.815 22.706 83.522 22.706C82.91 22.706 82.377 22.6 82.377 21.453H82.378ZM79.363 19.025C79.363 20.785 77.683 22.705 75.523 22.705C74.295 22.705 73.523 22.173 72.963 21.4781C72.563 20.892 72.268 19.906 72.268 18.812C72.268 17.424 72.668 16.0921 73.521 15.265C74.189 14.598 75.469 14.1191 77.098 14.1191C78.162 14.1191 79.364 14.331 79.364 14.331V19.024L79.363 19.025ZM59.203 11.8V25H62.243V14.5201H68.056V11.8H59.202H59.203ZM87.15 11.8V25H90.164V14.5201H96.724V25H99.766V11.8H87.15ZM50.322 11.452C48.428 11.452 47.042 11.905 45.735 13.132C44.375 14.386 43.628 16.1721 43.628 18.4401C43.628 20.4671 44.321 22.336 45.521 23.48C46.829 24.76 48.856 25.4 51.549 25.4C52.963 25.4 54.349 25.1621 55.443 24.8151V22.4401C54.83 22.5461 53.256 22.813 51.576 22.813C50.002 22.813 48.856 22.575 48.109 21.987C47.549 21.559 46.909 20.893 46.696 19.639H56.163C56.269 19.051 56.323 18.1711 56.323 17.2111C56.323 13.9051 54.056 11.451 50.323 11.451L50.322 11.452ZM46.748 17.105C46.908 16.145 47.281 15.345 47.841 14.785C48.376 14.252 49.256 13.932 50.296 13.932C51.31 13.932 51.976 14.252 52.536 14.786C53.043 15.346 53.283 16.2791 53.283 17.1061H46.749L46.748 17.105ZM131.848 21.453V11.88C131.368 11.8 129.475 11.532 126.674 11.532C121.394 11.532 118.621 14.4921 118.621 18.9191C118.621 21.0791 119.183 22.625 120.143 23.689C121.235 24.891 122.913 25.371 124.223 25.371C127.661 25.371 128.889 23.265 128.889 23.265L128.995 23.3181C128.995 23.3181 128.969 23.4531 128.969 23.6651C128.969 25.0251 130.359 25.345 131.557 25.345C132.864 25.345 133.583 25.24 133.583 25.24V22.68C133.423 22.706 133.289 22.706 132.995 22.706C132.381 22.706 131.849 22.6 131.849 21.453H131.848ZM128.834 19.025C128.834 20.785 127.152 22.705 124.994 22.705C123.767 22.705 122.994 22.173 122.434 21.4781C122.034 20.892 121.741 19.906 121.741 18.812C121.741 17.424 122.168 16.1191 122.995 15.265C123.688 14.6251 124.94 14.1191 126.567 14.1191C127.633 14.1191 128.835 14.331 128.835 14.331V19.024L128.834 19.025Z" fill="#2A2A2A"/>
</g>
<defs>
<clipPath id="clip0_1159:2382">
<rect width="150" height="29" fill="white"/>
</clipPath>
</defs>
</svg>
