<svg width="16" height="20" viewBox="0 0 16 20" fill="none" xmlns="http://www.w3.org/2000/svg">
<path fill-rule="evenodd" clip-rule="evenodd" d="M14.0002 8C14.0002 5.033 11.8332 2.568 9.00019 2.09V1C9.00019 0.447 8.55219 0 8.00019 0C7.44819 0 7.00019 0.447 7.00019 1V2.09C4.16719 2.568 2.00019 5.033 2.00019 8C2.00019 10.957 2.00019 12.586 0.293189 14.293C0.00718924 14.579 -0.0788107 15.009 0.0761893 15.383C0.231189 15.757 0.595189 16 1.00019 16H5.18319C5.06919 16.313 5.00019 16.647 5.00019 17C5.00019 18.654 6.34519 20 8.00019 20C9.65419 20 11.0002 18.654 11.0002 17C11.0002 16.647 10.9302 16.313 10.8162 16H15.0002C15.4042 16 15.7692 15.757 15.9242 15.383C16.0782 15.009 15.9932 14.579 15.7072 14.293C14.0002 12.586 14.0002 10.957 14.0002 8ZM3.01119 14C4.00019 12.208 4.00019 10.285 4.00019 8C4.00019 5.794 5.79419 4 8.00019 4C10.2052 4 12.0002 5.794 12.0002 8C12.0002 10.285 12.0002 12.208 12.9892 14H3.01119ZM9.00019 17C9.00019 17.552 8.55119 18 8.00019 18C7.44819 18 7.00019 17.552 7.00019 17C7.00019 16.448 7.44819 16 8.00019 16C8.55119 16 9.00019 16.448 9.00019 17Z" fill="#AAB4BD"/>
</svg>
