<svg width="15" height="15" viewBox="0 0 15 15" fill="none" xmlns="http://www.w3.org/2000/svg">
<path d="M10.3126 2.34307C10.3125 1.79318 10.5058 1.26076 10.8586 0.838985C11.2115 0.417206 11.7014 0.132921 12.2426 0.0358665C12.7839 -0.0611878 13.3421 0.0351693 13.8195 0.308079C14.2969 0.58099 14.6631 1.01307 14.8541 1.52874C15.0451 2.0444 15.0487 2.6108 14.8642 3.12885C14.6798 3.6469 14.3191 4.0836 13.8452 4.36255C13.3713 4.6415 12.8144 4.74494 12.272 4.65477C11.7295 4.5646 11.236 4.28656 10.8779 3.8693L4.57986 6.79425C4.72465 7.25309 4.72465 7.74539 4.57986 8.20423L10.8779 11.1292C11.2565 10.6889 11.7851 10.4048 12.3612 10.332C12.9373 10.2592 13.5199 10.4029 13.9961 10.7351C14.4723 11.0674 14.8083 11.5647 14.9388 12.1305C15.0692 12.6964 14.985 13.2905 14.7024 13.7978C14.4198 14.3051 13.959 14.6894 13.4092 14.8763C12.8594 15.0631 12.2598 15.0392 11.7266 14.8092C11.1934 14.5792 10.7646 14.1594 10.5232 13.6312C10.2819 13.103 10.2453 12.5041 10.4204 11.9504L4.12237 9.02546C3.81059 9.38881 3.39502 9.64795 2.93156 9.76803C2.46809 9.88812 1.97896 9.86338 1.52998 9.69715C1.08099 9.53092 0.693683 9.23118 0.420155 8.83824C0.146626 8.4453 0 7.97801 0 7.49924C0 7.02047 0.146626 6.55318 0.420155 6.16024C0.693683 5.7673 1.08099 5.46756 1.52998 5.30133C1.97896 5.1351 2.46809 5.11036 2.93156 5.23045C3.39502 5.35053 3.81059 5.60967 4.12237 5.97301L10.4204 3.04806C10.3487 2.81994 10.3123 2.58219 10.3126 2.34307Z" fill="#F9F9F9"/>
</svg>
