<svg width="35" height="36" viewBox="0 0 35 36" fill="none" xmlns="http://www.w3.org/2000/svg">
<path d="M31.5066 3.35645H10.6148C10.4436 3.3563 10.2741 3.38988 10.1158 3.45527C9.9576 3.52066 9.8138 3.61657 9.69263 3.73753C9.57146 3.8585 9.47531 4.00214 9.40966 4.16026C9.34401 4.31839 9.31014 4.48789 9.31 4.6591V10.4658L21.4167 14.0205L32.8125 10.4658V4.6591C32.8124 4.4878 32.7785 4.3182 32.7127 4.16001C32.647 4.00182 32.5508 3.85812 32.4295 3.73715C32.3082 3.61617 32.1643 3.52028 32.0059 3.45496C31.8475 3.38963 31.6779 3.35616 31.5066 3.35645Z" fill="#41A5EE"/>
<path d="M32.8125 10.4658H9.31V17.5752L21.4167 19.708L32.8125 17.5752V10.4658Z" fill="#2B7CD3"/>
<path d="M9.31 17.5752V24.6846L20.7047 26.1064L32.8125 24.6846V17.5752H9.31Z" fill="#185ABD"/>
<path d="M10.6148 31.7939H31.5055C31.6769 31.7944 31.8467 31.761 32.0051 31.6958C32.1636 31.6305 32.3077 31.5346 32.4291 31.4136C32.5505 31.2926 32.6468 31.1489 32.7126 30.9906C32.7784 30.8324 32.8124 30.6627 32.8125 30.4913V24.6846H9.31V30.4913C9.31014 30.6625 9.34401 30.832 9.40966 30.9901C9.47531 31.1483 9.57146 31.2919 9.69263 31.4129C9.8138 31.5338 9.9576 31.6297 10.1158 31.6951C10.2741 31.7605 10.4436 31.7941 10.6148 31.7939Z" fill="#103F91"/>
<path opacity="0.1" d="M17.9747 9.04395H9.31V26.8174H17.9747C18.3199 26.8157 18.6506 26.678 18.8951 26.4341C19.1395 26.1903 19.278 25.86 19.2806 25.5147V10.3466C19.278 10.0013 19.1395 9.67102 18.8951 9.42718C18.6506 9.18335 18.3199 9.04566 17.9747 9.04395Z" fill="black"/>
<path opacity="0.2" d="M17.2627 9.75488H9.31V27.5283H17.2627C17.6079 27.5266 17.9386 27.3889 18.183 27.1451C18.4275 26.9012 18.566 26.5709 18.5686 26.2257V11.0575C18.566 10.7123 18.4275 10.382 18.183 10.1381C17.9386 9.89429 17.6079 9.7566 17.2627 9.75488Z" fill="black"/>
<path opacity="0.2" d="M17.2627 9.75488H9.31V26.1064H17.2627C17.6079 26.1047 17.9386 25.967 18.183 25.7232C18.4275 25.4794 18.566 25.149 18.5686 24.8038V11.0575C18.566 10.7123 18.4275 10.382 18.183 10.1381C17.9386 9.89429 17.6079 9.7566 17.2627 9.75488Z" fill="black"/>
<path opacity="0.2" d="M16.5506 9.75488H9.31V26.1064H16.5506C16.8959 26.1047 17.2266 25.967 17.471 25.7232C17.7155 25.4794 17.854 25.149 17.8566 24.8038V11.0575C17.854 10.7123 17.7155 10.382 17.471 10.1381C17.2266 9.89429 16.8959 9.7566 16.5506 9.75488Z" fill="black"/>
<path d="M3.49344 9.75488H16.5506C16.8965 9.75459 17.2283 9.89164 17.4732 10.1359C17.7181 10.3802 17.856 10.7117 17.8566 11.0575V24.0929C17.856 24.4387 17.7181 24.7702 17.4732 25.0145C17.2283 25.2588 16.8965 25.3958 16.5506 25.3955H3.49344C3.32213 25.3958 3.15245 25.3623 2.99409 25.297C2.83574 25.2317 2.6918 25.1358 2.57052 25.0148C2.44924 24.8938 2.35299 24.7501 2.28726 24.5919C2.22154 24.4338 2.18764 24.2642 2.1875 24.0929V11.0575C2.18764 10.8862 2.22154 10.7166 2.28726 10.5584C2.35299 10.4003 2.44924 10.2566 2.57052 10.1356C2.6918 10.0146 2.83574 9.91872 2.99409 9.85339C3.15245 9.78807 3.32213 9.7546 3.49344 9.75488Z" fill="url(#paint0_linear_461_1832)"/>
<path d="M7.54689 19.7497C7.57204 19.9509 7.58954 20.1259 7.5972 20.2758H7.62783C7.63876 20.1336 7.66283 19.9619 7.69892 19.7617C7.73501 19.5615 7.76673 19.392 7.79626 19.2531L9.16892 13.3392H10.9452L12.367 19.1645C12.4499 19.5248 12.5091 19.8902 12.5442 20.2583H12.5683C12.5944 19.9 12.6437 19.5438 12.716 19.1919L13.8524 13.3315H15.4678L13.4728 21.8059H11.5839L10.231 16.1994C10.1916 16.0375 10.1471 15.8268 10.0975 15.5672C10.0479 15.3076 10.0173 15.118 10.0056 14.9984H9.98267C9.96736 15.1362 9.93673 15.3408 9.89079 15.612C9.84486 15.8844 9.80876 16.0845 9.78142 16.2158L8.50939 21.8092H6.58876L4.58282 13.3392H6.22345L7.46048 19.2651C7.4974 19.4251 7.52624 19.5868 7.54689 19.7497Z" fill="white"/>
<defs>
<linearGradient id="paint0_linear_461_1832" x1="4.91531" y1="8.73113" x2="15.1288" y2="26.4193" gradientUnits="userSpaceOnUse">
<stop stop-color="#2368C4"/>
<stop offset="0.5" stop-color="#1A5DBE"/>
<stop offset="1" stop-color="#1146AC"/>
</linearGradient>
</defs>
</svg>
